# xmcd
#
# Track frame offsets:
#	150
#	13533
#	36781
#	58505
#	76406
#	85862
#
# Disc length: 1398 seconds
#
# Revision: 0
# Processed by: cddbd v1.5.2PL0 Copyright (c) Steve Scherf et al.
# Submitted via: audiograbber 1.83.01
#
DISCID=3b057406
DTITLE=Vadvirágok Blues Band - Blues a Mezõn
DYEAR=2007
DGENRE=Blues
TTITLE0=Vadvirágok Blues Band - Old Black Shoe
TTITLE1=Vadvirágok Blues Band - Lassú
TTITLE2=Vadvirágok Blues Band - Csontomig hatol
TTITLE3=Vadvirágok Blues Band - Kócos lány
TTITLE4=Vadvirágok Blues Band - Jóbarátok
TTITLE5=Vadvirágok Blues Band - Két vándor
EXTD=A lemez megjelenését a Menhely alapítvány támogatta
EXTT0=
EXTT1=
EXTT2=
EXTT3=
EXTT4=
EXTT5=
PLAYORDER=
